:SAMPLES-PER-SECOND 30
:FULLY-SPECIFIED
:DEGREES
198
root  -2.44366 40.9832 1.11259 -176.686 -86.7147 176.993
RightUpLeg  3.27367 -0.340157 -0.483985
RightLeg  -2.6377 -14.0565 0.346166
RightFoot  -0.0992772 -0.199044 2.01304
RightToes  -3.10678e-008 1.75238e-005 3.56266e-009
Spine  -3.09208 1.22629 1.32463
Spine1  2.64297 1.47503 -1.61911
HEad  -9.09002 1.08962 3.16
LeftShoulder1  3.47611 -6.19316 -29.8263
LeftArm  -41.2395 15.4211 -50.0919
LeftForeArm  118.121 -1.60392 8.70342
LeftHand  -1.07745 -3.98327 13.5739
RightShoulder  2.45874 5.18639 22.0536
RightArm  -16.5868 44.0707 56.7727
RightForeArm  66.2301 5.30759 4.87274
RightHand  0.182555 4.74739 1.79136
LeftUpLeg  3.5924 0.688769 1.5007
LeftLeg  -2.88174 17.6715 -0.974559
LeftFoot  -0.381058 0.271379 -2.77147
LeftToes  4.76857e-008 1.46588e-008 1.31384e-009
199
root  -2.55953 40.9783 1.11511 -179.876 -84.118 -179.217
RightUpLeg  2.29923 0.0157714 -0.440311
RightLeg  -2.17992 -11.7877 -0.0472365
RightFoot  -0.191868 -0.203539 2.073
RightToes  -3.10678e-008 1.75238e-005 3.56266e-009
Spine  -3.16936 1.20945 1.39567
Spine1  1.89395 1.57555 -2.32891
HEad  -9.43972 3.98731 3.96049
LeftShoulder1  3.08274 -5.46757 -28.2953
LeftArm  -47.2255 30.0132 -52.2507
LeftForeArm  122.657 -3.23067 10.5613
LeftHand  -1.05354 -3.58267 13.8453
RightShoulder  1.95158 3.89604 20.0065
RightArm  -7.13472 52.0045 62.1058
RightForeArm  59.7506 11.1818 6.91655
RightHand  0.0724882 4.47075 0.568206
LeftUpLeg  3.68116 0.743058 1.43457
LeftLeg  -3.42387 20.1889 -1.35539
LeftFoot  -0.510763 0.27426 -2.80531
LeftToes  4.76857e-008 1.46588e-008 1.31384e-009
200
root  -2.70083 40.9732 1.12702 179.474 -81.8156 -178.196
RightUpLeg  1.78684 0.324002 -0.291008
RightLeg  -1.9933 -9.79652 -0.263322
RightFoot  -0.197154 -0.209449 2.14913
RightToes  -3.10678e-008 1.75238e-005 3.56266e-009
Spine  -3.81461 1.56975 1.68308
Spine1  2.03852 2.00353 -2.79546
HEad  -10.043 5.01479 4.2246
LeftShoulder1  2.59897 -4.64022 -25.7759
LeftArm  -51.9936 42.9002 -56.5539
LeftForeArm  126.369 -4.50534 10.6167
LeftHand  -1.07621 -3.78064 13.8439
RightShoulder  1.4469 2.42277 17.8744
RightArm  7.06852 58.5079 67.6908
RightForeArm  49.1998 16.8019 5.94863
RightHand  0.0906358 4.77089 0.736568
LeftUpLeg  3.89421 0.77053 1.43593
LeftLeg  -3.66985 22.4518 -1.48506
LeftFoot  -0.797702 0.286031 -3.04909
LeftToes  4.76857e-008 1.46588e-008 1.31384e-009
201
root  -2.82308 40.9667 1.11522 178.52 -80.0368 -177.146
RightUpLeg  1.79921 0.609622 -0.0407744
RightLeg  -2.19419 -8.3239 -0.36386
RightFoot  -0.0988416 -0.214003 2.19789
RightToes  -3.10678e-008 1.75238e-005 3.56266e-009
Spine  -4.31598 1.87439 1.60728
Spine1  2.43526 2.26851 -2.57496
HEad  -10.6562 5.67175 4.23263
LeftShoulder1  2.14173 -3.72485 -23.3509
LeftArm  -56.9825 53.4829 -61.759
LeftForeArm  129.971 -5.66429 9.89287
LeftHand  -1.142 -4.3517 13.8385
RightShoulder  0.992376 0.846621 16.2354
RightArm  18.1631 63.4648 73.6602
RightForeArm  42.2243 20.9113 3.94143
RightHand  0.0958257 5.48128 0.704061
LeftUpLeg  4.17205 0.994991 1.59707
LeftLeg  -3.59721 23.9862 -1.55569
LeftFoot  -1.14641 0.270717 -2.95844
LeftToes  4.76857e-008 1.46588e-008 1.31384e-009
202
root  -2.92411 40.9592 1.11376 178.332 -78.4423 -176.983
RightUpLeg  1.69223 0.717762 0.0258664
RightLeg  -1.93766 -6.80386 -0.482755
RightFoot  -0.193857 -0.220249 2.26604
RightToes  -3.10678e-008 1.75238e-005 3.56266e-009
Spine  -4.88278 2.35783 1.37799
Spine1  2.9556 2.72389 -2.28977
HEad  -11.0706 6.01757 3.7385
LeftShoulder1  1.7343 -2.90338 -20.6786
LeftArm  -64.6317 60.8523 -68.2527
LeftForeArm  133.386 -6.43639 10.5431
LeftHand  -1.08257 -4.3309 13.1795
RightShoulder  0.752001 -0.132861 15.6087
RightArm  23.8892 66.2337 76.7805
RightForeArm  37.1751 24.8995 3.24144
RightHand  0.0962476 4.9402 0.780754
LeftUpLeg  4.53903 0.998511 1.53477
LeftLeg  -3.58827 25.5906 -1.51392
LeftFoot  -1.37665 0.272719 -3.03348
LeftToes  4.76857e-008 1.46588e-008 1.31384e-009
203
root  -2.99482 40.9526 1.12045 177.983 -77.511 -176.722
RightUpLeg  1.6977 0.75849 0.0687808
RightLeg  -1.72419 -5.85754 -0.528924
RightFoot  -0.27496 -0.224445 2.29498
RightToes  -3.10678e-008 1.75238e-005 3.56266e-009
Spine  -5.1067 2.66157 1.00707
Spine1  3.0909 2.94753 -1.74203
HEad  -11.0205 5.38625 3.40265
LeftShoulder1  1.55763 -2.5714 -19.1118
LeftArm  -71.8285 65.2017 -73.3046
LeftForeArm  136.375 -6.71056 11.8436
LeftHand  -1.07808 -5.14265 12.1509
RightShoulder  0.540584 -0.984706 14.791
RightArm  21.7089 66.5135 78.5632
RightForeArm  38.8341 28.5139 4.06769
RightHand  0.119365 4.96688 1.03183
LeftUpLeg  4.79511 1.02384 1.51171
LeftLeg  -3.45909 26.5104 -1.42547
LeftFoot  -1.58416 0.268845 -3.0385
LeftToes  4.76857e-008 1.46588e-008 1.31384e-009
204
root  -3.01346 40.9498 1.12833 177.769 -77.1937 -176.575
RightUpLeg  1.63483 0.781154 0.0894681
RightLeg  -1.44552 -5.54258 -0.568074
RightFoot  -0.340856 -0.242775 2.49544
RightToes  -3.10678e-008 1.75238e-005 3.56266e-009
Spine  -5.38992 2.67533 0.971208
Spine1  3.45872 2.98721 -1.83756
HEad  -11.1766 5.50096 3.02276
LeftShoulder1  1.44765 -2.39899 -17.9203
LeftArm  -76.2554 66.4084 -76.207
LeftForeArm  140.024 -7.17801 13.4139
LeftHand  -1.05963 -5.5092 11.5649
RightShoulder  0.632125 -0.641142 15.4317
RightArm  18.7565 65.6996 76.0665
RightForeArm  38.3982 31.7884 4.83495
RightHand  0.144142 5.64412 1.19412
LeftUpLeg  4.85418 1.1541 1.58512
LeftLeg  -3.26965 26.714 -1.44227
LeftFoot  -1.73357 0.268987 -3.0775
LeftToes  4.76857e-008 1.46588e-008 1.31384e-009
